<svg xmlns="http://www.w3.org/2000/svg" viewBox="0 0 506 491" width="506" height="491">
  <path d="M 9 63 L 5 70 L 4 80 L 7 87 L 10 90 L 16 93 L 24 94 L 32 91 L 37 85 L 38 80 L 36 74 L 32 70 L 24 68 L 18 71 L 16 75 L 16 79 L 20 84 L 19 85 L 15 84 L 11 78 L 11 74 L 14 68 L 19 64 L 32 63 L 36 65 L 45 74 L 48 80 L 51 95 L 51 140 L 52 141 L 52 153 L 55 168 L 58 176 L 66 190 L 75 199 L 88 206 L 87 207 L 72 207 L 69 208 L 57 194 L 50 179 L 47 163 L 47 132 L 48 131 L 48 113 L 49 112 L 48 90 L 45 80 L 40 72 L 42 78 L 44 96 L 43 97 L 43 112 L 42 113 L 41 128 L 39 136 L 39 145 L 38 146 L 38 161 L 37 162 L 38 183 L 44 201 L 57 222 L 56 223 L 32 223 L 29 224 L 24 230 L 24 290 L 26 294 L 32 297 L 62 297 L 63 298 L 63 309 L 62 310 L 32 310 L 29 311 L 26 314 L 25 317 L 25 372 L 31 378 L 36 379 L 63 379 L 66 381 L 66 395 L 65 396 L 30 396 L 26 400 L 26 412 L 27 413 L 26 460 L 30 465 L 35 466 L 54 467 L 55 468 L 64 468 L 65 469 L 60 471 L 36 473 L 70 476 L 71 477 L 98 478 L 99 479 L 215 480 L 216 479 L 248 479 L 253 478 L 180 477 L 179 476 L 166 476 L 165 475 L 150 474 L 147 472 L 148 471 L 160 471 L 161 470 L 257 470 L 258 469 L 263 470 L 337 470 L 338 471 L 354 471 L 355 472 L 351 474 L 320 476 L 343 477 L 344 478 L 387 478 L 388 477 L 420 477 L 421 476 L 436 476 L 437 475 L 467 473 L 465 472 L 455 472 L 454 471 L 443 471 L 441 469 L 451 467 L 471 466 L 475 465 L 478 461 L 478 399 L 477 397 L 475 396 L 439 396 L 437 394 L 437 384 L 439 379 L 442 380 L 443 379 L 473 378 L 479 372 L 479 317 L 478 314 L 473 310 L 442 310 L 441 309 L 441 298 L 442 297 L 470 297 L 477 295 L 480 291 L 480 229 L 476 224 L 473 223 L 450 223 L 449 222 L 458 210 L 464 198 L 469 179 L 469 151 L 468 150 L 468 139 L 467 138 L 467 130 L 466 129 L 466 121 L 464 111 L 464 82 L 466 72 L 472 65 L 476 63 L 483 62 L 489 64 L 496 72 L 495 80 L 490 85 L 488 85 L 487 84 L 491 80 L 491 73 L 485 68 L 479 68 L 476 69 L 472 73 L 470 78 L 470 83 L 472 87 L 477 92 L 480 93 L 493 92 L 499 88 L 503 80 L 502 69 L 500 65 L 494 59 L 487 56 L 474 56 L 466 60 L 459 67 L 456 72 L 454 79 L 449 80 L 444 78 L 443 76 L 446 69 L 450 66 L 443 63 L 442 64 L 443 70 L 440 76 L 431 74 L 429 72 L 431 66 L 436 61 L 430 58 L 428 59 L 428 61 L 430 62 L 426 72 L 418 70 L 412 67 L 415 65 L 417 59 L 420 58 L 421 56 L 414 53 L 413 55 L 414 59 L 412 63 L 413 66 L 412 67 L 406 66 L 396 62 L 399 61 L 401 55 L 403 53 L 405 53 L 405 51 L 401 49 L 398 49 L 399 54 L 397 57 L 396 62 L 388 60 L 386 57 L 390 47 L 390 35 L 386 26 L 379 20 L 373 17 L 361 17 L 355 20 L 351 24 L 348 30 L 348 40 L 350 44 L 355 49 L 359 51 L 366 52 L 371 50 L 376 44 L 375 34 L 369 29 L 364 29 L 359 33 L 358 35 L 359 41 L 358 42 L 354 37 L 355 29 L 360 24 L 363 23 L 370 23 L 376 26 L 382 34 L 383 42 L 377 54 L 369 65 L 331 106 L 342 129 L 342 125 L 346 116 L 381 69 L 385 66 L 388 68 L 391 68 L 392 70 L 388 78 L 384 91 L 381 96 L 380 101 L 377 106 L 374 117 L 359 155 L 357 163 L 355 166 L 346 164 L 344 175 L 339 190 L 332 202 L 320 215 L 329 221 L 332 221 L 333 222 L 332 223 L 291 223 L 290 222 L 302 219 L 312 214 L 325 202 L 335 185 L 340 166 L 340 144 L 338 135 L 327 109 L 308 71 L 302 55 L 298 38 L 298 28 L 301 20 L 308 13 L 313 11 L 320 11 L 327 14 L 332 21 L 332 26 L 330 30 L 325 33 L 324 32 L 327 25 L 325 20 L 320 17 L 315 17 L 311 19 L 307 25 L 308 35 L 313 40 L 320 42 L 330 39 L 335 34 L 338 28 L 337 16 L 330 8 L 324 5 L 311 5 L 302 9 L 295 16 L 292 21 L 290 27 L 290 38 L 289 39 L 234 39 L 233 38 L 223 38 L 222 37 L 222 23 L 219 15 L 212 7 L 207 4 L 200 2 L 192 2 L 184 5 L 177 12 L 175 16 L 175 27 L 177 31 L 184 38 L 189 40 L 196 40 L 201 38 L 205 34 L 208 24 L 209 25 L 209 36 L 199 64 L 177 107 L 170 124 L 170 128 L 168 132 L 167 142 L 166 143 L 166 160 L 167 161 L 168 171 L 172 184 L 182 201 L 195 213 L 208 219 L 218 221 L 219 222 L 218 223 L 175 223 L 174 222 L 178 221 L 188 215 L 180 207 L 172 196 L 164 177 L 162 165 L 161 164 L 155 167 L 152 163 L 150 154 L 140 131 L 139 125 L 117 71 L 119 68 L 125 66 L 129 69 L 136 80 L 155 104 L 166 122 L 170 112 L 168 108 L 169 107 L 171 109 L 174 101 L 140 66 L 131 53 L 127 42 L 128 34 L 131 29 L 138 24 L 146 23 L 154 28 L 156 33 L 155 38 L 153 41 L 151 33 L 146 29 L 141 29 L 136 32 L 134 36 L 135 46 L 139 50 L 146 52 L 157 47 L 162 38 L 162 30 L 159 24 L 154 19 L 144 16 L 143 17 L 137 17 L 130 20 L 123 27 L 119 38 L 119 47 L 124 58 L 123 59 L 113 62 L 110 53 L 112 50 L 110 48 L 103 51 L 104 53 L 106 53 L 108 55 L 109 59 L 112 62 L 97 67 L 96 66 L 97 64 L 94 58 L 96 55 L 94 53 L 87 56 L 88 58 L 90 58 L 92 60 L 94 66 L 97 67 L 96 68 L 82 72 L 79 65 L 80 61 L 79 58 L 73 60 L 72 62 L 76 64 L 77 69 L 80 72 L 75 75 L 66 77 L 65 76 L 66 73 L 64 70 L 65 64 L 64 63 L 57 66 L 58 68 L 61 69 L 62 74 L 66 77 L 57 81 L 55 81 L 53 79 L 52 74 L 48 66 L 42 60 L 36 57 L 21 56 L 14 59 Z
M 396 335 L 391 338 L 390 345 L 395 349 L 399 349 L 403 346 L 404 340 L 401 336 Z
M 104 335 L 101 337 L 99 343 L 102 348 L 108 349 L 112 347 L 113 339 L 111 336 Z
M 103 420 L 100 423 L 99 426 L 100 430 L 104 433 L 111 432 L 114 427 L 113 423 L 110 420 Z
M 104 250 L 100 253 L 99 258 L 103 263 L 109 263 L 113 260 L 113 254 L 109 250 Z
M 394 420 L 390 425 L 390 429 L 394 433 L 400 433 L 404 428 L 404 424 L 400 420 Z
M 395 250 L 390 254 L 390 259 L 394 263 L 400 263 L 404 259 L 404 255 L 401 251 Z
M 244 26 L 244 28 L 246 30 L 246 36 L 249 36 L 249 30 L 251 28 L 251 26 Z
M 230 26 L 230 29 L 232 30 L 232 36 L 235 36 L 235 30 L 237 27 L 236 26 Z
M 273 26 L 273 28 L 275 30 L 275 36 L 278 36 L 278 29 L 280 28 L 280 26 Z
M 259 26 L 258 28 L 261 30 L 260 35 L 263 36 L 265 26 Z
M 50 262 L 53 265 L 58 263 L 56 261 Z
M 447 261 L 448 263 L 451 264 L 455 263 L 455 261 L 453 260 Z
M 371 220 L 422 220 L 424 222 L 424 461 L 423 462 L 371 462 L 370 461 L 370 221 Z
M 81 220 L 130 220 L 134 222 L 134 461 L 133 462 L 81 462 L 80 461 L 80 221 Z
M 147 238 L 148 237 L 355 237 L 357 239 L 357 257 L 355 259 L 270 261 L 289 261 L 290 262 L 327 263 L 328 264 L 353 264 L 357 266 L 356 283 L 355 284 L 149 284 L 147 282 L 147 271 L 149 267 L 184 266 L 148 264 L 147 263 L 148 261 L 147 260 Z
M 356 325 L 357 339 L 355 341 L 303 341 L 355 345 L 357 347 L 357 366 L 356 367 L 148 367 L 147 366 L 147 348 L 149 346 L 199 344 L 149 343 L 147 339 L 147 327 L 148 326 L 147 325 L 148 324 L 324 324 L 325 323 L 333 323 L 334 324 L 355 324 Z
M 147 410 L 148 409 L 356 409 L 357 410 L 357 427 L 356 428 L 251 431 L 353 433 L 356 435 L 357 450 L 355 452 L 149 452 L 147 446 L 147 438 L 149 430 L 204 428 L 159 428 L 158 427 L 149 427 L 147 425 L 148 424 L 147 423 Z
M 147 382 L 148 381 L 355 381 L 357 383 L 357 394 L 355 396 L 149 396 L 147 391 Z
M 279 46 L 289 46 L 290 47 L 293 63 L 309 107 L 312 122 L 312 137 L 310 145 L 306 152 L 294 161 L 280 161 L 279 160 L 279 99 L 278 98 L 278 47 Z
M 236 46 L 245 46 L 246 47 L 245 158 L 248 158 L 249 47 L 250 46 L 259 46 L 260 47 L 260 155 L 261 156 L 260 160 L 231 160 L 230 159 L 231 158 L 231 146 L 232 145 L 234 64 L 235 63 L 235 47 Z
M 149 298 L 150 297 L 355 297 L 356 298 L 356 309 L 355 310 L 150 310 L 149 309 Z
M 222 46 L 231 46 L 232 47 L 231 81 L 230 82 L 230 110 L 229 111 L 229 142 L 228 143 L 228 158 L 230 159 L 229 160 L 217 160 L 207 155 L 201 148 L 197 137 L 197 120 L 199 111 L 206 90 L 218 61 L 219 54 Z
M 189 10 L 199 9 L 206 12 L 211 16 L 216 26 L 216 40 L 213 53 L 204 80 L 194 105 L 190 123 L 191 148 L 196 162 L 205 173 L 212 178 L 223 183 L 250 190 L 287 191 L 288 192 L 287 194 L 276 198 L 264 199 L 263 200 L 230 199 L 216 195 L 203 189 L 196 184 L 185 172 L 180 161 L 179 151 L 178 150 L 178 140 L 179 139 L 180 128 L 189 102 L 205 67 L 213 40 L 213 30 L 211 24 L 206 19 L 199 15 L 190 16 L 186 22 L 187 28 L 186 29 L 184 28 L 181 21 L 182 17 Z
M 60 87 L 63 86 L 67 87 L 80 126 L 84 134 L 101 182 L 99 185 L 92 187 L 87 187 L 81 185 L 70 176 L 63 164 L 59 146 L 58 98 L 56 90 Z
M 443 85 L 450 88 L 449 108 L 448 109 L 448 142 L 447 143 L 447 151 L 444 164 L 438 175 L 431 182 L 424 186 L 414 187 L 408 185 L 407 182 L 419 147 L 421 144 L 421 141 L 423 138 L 424 132 L 426 129 L 440 86 Z
M 86 78 L 97 75 L 99 78 L 112 114 L 116 122 L 116 125 L 132 165 L 134 171 L 133 174 L 122 177 L 120 175 L 111 148 L 108 143 L 102 124 L 98 116 L 95 105 L 85 81 Z
M 103 73 L 112 70 L 116 76 L 117 81 L 128 106 L 136 130 L 151 167 L 148 169 L 138 172 L 136 169 L 131 153 L 125 140 L 122 129 L 114 110 L 112 102 L 101 75 Z
M 72 83 L 81 81 L 84 86 L 103 139 L 110 155 L 113 166 L 118 177 L 115 180 L 105 183 L 103 180 L 92 146 L 90 143 L 75 99 L 69 85 Z
M 422 78 L 423 79 L 407 121 L 389 174 L 387 177 L 378 175 L 375 173 L 375 170 L 387 140 L 396 112 L 399 107 L 409 78 L 411 75 Z
M 404 72 L 407 74 L 407 76 L 396 103 L 372 171 L 369 172 L 361 169 L 358 167 L 360 164 L 375 121 L 393 75 L 396 70 Z
M 435 82 L 438 85 L 436 88 L 429 111 L 427 114 L 427 117 L 425 120 L 404 182 L 402 183 L 398 181 L 395 181 L 390 178 L 403 145 L 425 82 L 427 80 Z
M 438 237 L 465 237 L 466 238 L 467 264 L 466 265 L 466 283 L 465 284 L 439 284 L 437 282 L 437 238 Z
M 265 46 L 274 46 L 275 47 L 275 107 L 276 108 L 276 160 L 275 161 L 268 161 L 263 159 L 264 158 L 263 114 L 264 113 L 264 47 Z
M 39 237 L 65 237 L 66 238 L 66 283 L 65 284 L 39 284 L 38 283 L 38 238 Z
M 438 409 L 464 409 L 465 410 L 465 451 L 464 452 L 439 452 L 437 450 L 437 410 Z
M 439 323 L 440 324 L 445 323 L 446 324 L 464 324 L 465 325 L 465 365 L 464 366 L 438 366 L 437 365 L 437 325 Z
M 65 323 L 66 324 L 66 365 L 65 366 L 40 366 L 39 365 L 39 325 L 40 324 L 61 324 L 62 323 L 64 324 Z
M 41 409 L 65 409 L 66 410 L 66 451 L 65 452 L 41 452 L 40 451 L 40 410 Z
M 461 77 L 462 81 L 458 97 L 458 125 L 459 126 L 459 143 L 460 144 L 459 171 L 455 185 L 447 199 L 436 210 L 431 207 L 424 207 L 423 206 L 430 202 L 439 194 L 444 187 L 452 168 L 455 152 L 455 139 L 456 138 L 456 132 L 455 131 L 456 95 L 457 94 L 458 84 Z
M 316 100 L 326 121 L 329 133 L 330 148 L 327 163 L 321 175 L 314 182 L 311 183 L 306 178 L 313 170 L 317 163 L 320 154 L 321 142 L 322 141 L 321 123 L 319 113 L 315 103 Z
M 219 168 L 220 167 L 265 167 L 266 168 L 287 168 L 288 170 L 287 171 L 220 170 Z
M 346 173 L 349 172 L 359 175 L 362 177 L 406 191 L 410 193 L 411 195 L 410 196 L 373 183 L 364 181 L 361 179 L 353 177 Z
M 160 174 L 147 180 L 144 180 L 129 186 L 120 188 L 117 190 L 114 190 L 101 195 L 96 194 L 99 192 L 147 176 L 150 176 L 157 173 Z
M 163 199 L 145 209 L 133 206 L 158 198 Z
M 346 199 L 350 198 L 376 206 L 375 207 L 363 207 L 362 208 Z
M 241 206 L 242 205 L 262 205 L 263 206 L 262 207 L 242 207 Z" fill="#cc9944" fill-rule="evenodd"/>
</svg>
